<svg xmlns="http://www.w3.org/2000/svg" xmlns:xlink="http://www.w3.org/1999/xlink" width="478.13" height="478.13" viewBox="0 0 478.13 478.13"><defs><style>.a{fill:#e37777;}.b{filter:url(#g);}.c{filter:url(#e);}.d{filter:url(#c);}.e{filter:url(#a);}</style><filter id="a" x="227" y="227" width="251.13" height="251.13" filterUnits="userSpaceOnUse"><feOffset dy="3" input="SourceAlpha"/><feGaussianBlur stdDeviation="4" result="b"/><feFlood flood-opacity="0.576"/><feComposite operator="in" in2="b"/><feComposite in="SourceGraphic"/></filter><filter id="c" x="0" y="0" width="251.13" height="251.13" filterUnits="userSpaceOnUse"><feOffset dy="3" input="SourceAlpha"/><feGaussianBlur stdDeviation="4" result="d"/><feFlood flood-opacity="0.576"/><feComposite operator="in" in2="d"/><feComposite in="SourceGraphic"/></filter><filter id="e" x="1" y="222" width="254.666" height="254.666" filterUnits="userSpaceOnUse"><feOffset dy="3" input="SourceAlpha"/><feGaussianBlur stdDeviation="4" result="f"/><feFlood flood-opacity="0.576"/><feComposite operator="in" in2="f"/><feComposite in="SourceGraphic"/></filter><filter id="g" x="221" y="0" width="256.787" height="256.787" filterUnits="userSpaceOnUse"><feOffset dy="3" input="SourceAlpha"/><feGaussianBlur stdDeviation="4" result="h"/><feFlood flood-opacity="0.576"/><feComposite operator="in" in2="h"/><feComposite in="SourceGraphic"/></filter></defs><g transform="translate(-722.266 -304.548)"><g class="e" transform="matrix(1, 0, 0, 1, 722.27, 304.55)"><rect class="a" width="316.906" height="4.304" transform="translate(239 460.09) rotate(-45)"/></g><g class="d" transform="matrix(1, 0, 0, 1, 722.27, 304.55)"><path class="a" d="M0,0H316.906V4.3H0Z" transform="translate(12 233.09) rotate(-45)"/></g><g class="c" transform="matrix(1, 0, 0, 1, 722.27, 304.55)"><path class="a" d="M0,0H321.906V4.3H0Z" transform="translate(16.04 231) rotate(45)"/></g><g class="b" transform="matrix(1, 0, 0, 1, 722.27, 304.55)"><path class="a" d="M0,0H324.906V4.3H0Z" transform="translate(236.04 9) rotate(45)"/></g></g></svg>