<svg xmlns="http://www.w3.org/2000/svg" xmlns:xlink="http://www.w3.org/1999/xlink" width="924.097" height="907.607" viewBox="0 0 924.097 907.607"><defs><style>.a{fill:#e37777;}.b{filter:url(#g);}.c{filter:url(#e);}.d{filter:url(#c);}.e{filter:url(#a);}</style><filter id="a" x="520.375" y="503.885" width="403.722" height="403.722" filterUnits="userSpaceOnUse"><feOffset dy="3" input="SourceAlpha"/><feGaussianBlur stdDeviation="4" result="b"/><feFlood flood-opacity="0.576"/><feComposite operator="in" in2="b"/><feComposite in="SourceGraphic"/></filter><filter id="c" x="0" y="0" width="403.722" height="403.722" filterUnits="userSpaceOnUse"><feOffset dy="3" input="SourceAlpha"/><feGaussianBlur stdDeviation="4" result="d"/><feFlood flood-opacity="0.576"/><feComposite operator="in" in2="d"/><feComposite in="SourceGraphic"/></filter><filter id="e" x="1.672" y="495.526" width="409.633" height="409.633" filterUnits="userSpaceOnUse"><feOffset dy="3" input="SourceAlpha"/><feGaussianBlur stdDeviation="4" result="f"/><feFlood flood-opacity="0.576"/><feComposite operator="in" in2="f"/><feComposite in="SourceGraphic"/></filter><filter id="g" x="510.344" y="0" width="413.179" height="413.179" filterUnits="userSpaceOnUse"><feOffset dy="3" input="SourceAlpha"/><feGaussianBlur stdDeviation="4" result="h"/><feFlood flood-opacity="0.576"/><feComposite operator="in" in2="h"/><feComposite in="SourceGraphic"/></filter></defs><g transform="translate(12 9)"><g class="e" transform="matrix(1, 0, 0, 1, -12, -9)"><path class="a" d="M0,0H529.812V7.2H0Z" transform="translate(532.37 887.52) rotate(-45)"/></g><g class="d" transform="matrix(1, 0, 0, 1, -12, -9)"><path class="a" d="M0,0H529.812V7.2H0Z" transform="translate(12 383.63) rotate(-45)"/></g><g class="c" transform="matrix(1, 0, 0, 1, -12, -9)"><path class="a" d="M0,0H538.171V7.2H0Z" transform="translate(18.76 504.53) rotate(45)"/></g><g class="b" transform="matrix(1, 0, 0, 1, -12, -9)"><rect class="a" width="543.186" height="7.196" transform="translate(527.43 9) rotate(45)"/></g></g></svg>