<svg xmlns="http://www.w3.org/2000/svg" xmlns:xlink="http://www.w3.org/1999/xlink" width="364.512" height="364.512" viewBox="0 0 364.512 364.512"><defs><style>.a{fill:#e37777;}.b{filter:url(#o);}.c{filter:url(#m);}.d{filter:url(#k);}.e{filter:url(#i);}.f{filter:url(#g);}.g{filter:url(#e);}.h{filter:url(#c);}.i{filter:url(#a);}</style><filter id="a" x="170.207" y="170.207" width="194.305" height="194.305" filterUnits="userSpaceOnUse"><feOffset dy="3" input="SourceAlpha"/><feGaussianBlur stdDeviation="4" result="b"/><feFlood flood-opacity="0.576"/><feComposite operator="in" in2="b"/><feComposite in="SourceGraphic"/></filter><filter id="c" x="0" y="0" width="194.305" height="194.305" filterUnits="userSpaceOnUse"><feOffset dy="3" input="SourceAlpha"/><feGaussianBlur stdDeviation="4" result="d"/><feFlood flood-opacity="0.576"/><feComposite operator="in" in2="d"/><feComposite in="SourceGraphic"/></filter><filter id="e" x="0.75" y="166.458" width="196.956" height="196.956" filterUnits="userSpaceOnUse"><feOffset dy="3" input="SourceAlpha"/><feGaussianBlur stdDeviation="4" result="f"/><feFlood flood-opacity="0.576"/><feComposite operator="in" in2="f"/><feComposite in="SourceGraphic"/></filter><filter id="g" x="165.708" y="0" width="198.546" height="198.546" filterUnits="userSpaceOnUse"><feOffset dy="3" input="SourceAlpha"/><feGaussianBlur stdDeviation="4" result="h"/><feFlood flood-opacity="0.576"/><feComposite operator="in" in2="h"/><feComposite in="SourceGraphic"/></filter><filter id="i" x="137.965" y="146.28" width="194.305" height="194.305" filterUnits="userSpaceOnUse"><feOffset dy="3" input="SourceAlpha"/><feGaussianBlur stdDeviation="4" result="j"/><feFlood flood-opacity="0.576"/><feComposite operator="in" in2="j"/><feComposite in="SourceGraphic"/></filter><filter id="k" x="30.169" y="23.244" width="194.305" height="194.305" filterUnits="userSpaceOnUse"><feOffset dy="3" input="SourceAlpha"/><feGaussianBlur stdDeviation="4" result="l"/><feFlood flood-opacity="0.576"/><feComposite operator="in" in2="l"/><feComposite in="SourceGraphic"/></filter><filter id="m" x="30.919" y="142.531" width="196.956" height="196.956" filterUnits="userSpaceOnUse"><feOffset dy="3" input="SourceAlpha"/><feGaussianBlur stdDeviation="4" result="n"/><feFlood flood-opacity="0.576"/><feComposite operator="in" in2="n"/><feComposite in="SourceGraphic"/></filter><filter id="o" x="133.466" y="23.244" width="198.546" height="198.546" filterUnits="userSpaceOnUse"><feOffset dy="3" input="SourceAlpha"/><feGaussianBlur stdDeviation="4" result="p"/><feFlood flood-opacity="0.576"/><feComposite operator="in" in2="p"/><feComposite in="SourceGraphic"/></filter></defs><g transform="translate(-722.266 -304.548)"><g transform="translate(734.266 313.548)"><g class="i" transform="matrix(1, 0, 0, 1, -12, -9)"><rect class="a" width="237.62" height="3.227" transform="translate(182.21 347.23) rotate(-45)"/></g><g class="h" transform="matrix(1, 0, 0, 1, -12, -9)"><path class="a" d="M0,0H237.62V3.227H0Z" transform="translate(12 177.02) rotate(-45)"/></g><g class="g" transform="matrix(1, 0, 0, 1, -12, -9)"><path class="a" d="M0,0H241.369V3.227H0Z" transform="translate(15.03 175.46) rotate(45)"/></g><g class="f" transform="matrix(1, 0, 0, 1, -12, -9)"><rect class="a" width="243.618" height="3.227" transform="translate(179.99 9) rotate(45)"/></g></g><g transform="translate(764.435 336.792)"><g class="e" transform="matrix(1, 0, 0, 1, -42.17, -32.24)"><path class="a" d="M0,0H237.62V3.227H0Z" transform="translate(149.97 323.3) rotate(-45)"/></g><g class="d" transform="matrix(1, 0, 0, 1, -42.17, -32.24)"><path class="a" d="M0,0H237.62V3.227H0Z" transform="translate(42.17 200.27) rotate(-45)"/></g><g class="c" transform="matrix(1, 0, 0, 1, -42.17, -32.24)"><rect class="a" width="241.369" height="3.227" transform="translate(45.2 151.53) rotate(45)"/></g><g class="b" transform="matrix(1, 0, 0, 1, -42.17, -32.24)"><path class="a" d="M0,0H243.618V3.227H0Z" transform="translate(147.75 32.24) rotate(45)"/></g></g><g transform="translate(815.857 340.254)"><rect class="a" width="237.62" height="3.227" transform="translate(2.121 283.848) rotate(-45)"/><rect class="a" width="237.62" height="3.227" transform="translate(2.121 168.022) rotate(-45)"/><rect class="a" width="241.369" height="3.227" transform="translate(3.077 112.076) rotate(45)"/><rect class="a" width="243.618" height="3.227" transform="translate(2.282 0) rotate(45)"/></g></g></svg>