<svg xmlns="http://www.w3.org/2000/svg" xmlns:xlink="http://www.w3.org/1999/xlink" width="654.7" height="643.145" viewBox="0 0 654.7 643.145"><defs><style>.a{fill:#777fe3;}.b{filter:url(#g);}.c{filter:url(#e);}.d{filter:url(#c);}.e{filter:url(#a);}</style><filter id="a" x="364.628" y="353.073" width="290.072" height="290.072" filterUnits="userSpaceOnUse"><feOffset dy="3" input="SourceAlpha"/><feGaussianBlur stdDeviation="4" result="b"/><feFlood flood-opacity="0.576"/><feComposite operator="in" in2="b"/><feComposite in="SourceGraphic"/></filter><filter id="c" x="0" y="0" width="290.072" height="290.072" filterUnits="userSpaceOnUse"><feOffset dy="3" input="SourceAlpha"/><feGaussianBlur stdDeviation="4" result="d"/><feFlood flood-opacity="0.576"/><feComposite operator="in" in2="d"/><feComposite in="SourceGraphic"/></filter><filter id="e" x="1.171" y="347.216" width="294.214" height="294.214" filterUnits="userSpaceOnUse"><feOffset dy="3" input="SourceAlpha"/><feGaussianBlur stdDeviation="4" result="f"/><feFlood flood-opacity="0.576"/><feComposite operator="in" in2="f"/><feComposite in="SourceGraphic"/></filter><filter id="g" x="357.599" y="0" width="296.699" height="296.699" filterUnits="userSpaceOnUse"><feOffset dy="3" input="SourceAlpha"/><feGaussianBlur stdDeviation="4" result="h"/><feFlood flood-opacity="0.576"/><feComposite operator="in" in2="h"/><feComposite in="SourceGraphic"/></filter></defs><g transform="translate(12 9)"><g class="e" transform="matrix(1, 0, 0, 1, -12, -9)"><path class="a" d="M0,0H371.24V5.042H0Z" transform="translate(376.63 624.58) rotate(-45)"/></g><g class="d" transform="matrix(1, 0, 0, 1, -12, -9)"><path class="a" d="M0,0H371.24V5.042H0Z" transform="translate(12 271.51) rotate(-45)"/></g><g class="c" transform="matrix(1, 0, 0, 1, -12, -9)"><path class="a" d="M0,0H377.1V5.042H0Z" transform="translate(16.74 356.22) rotate(45)"/></g><g class="b" transform="matrix(1, 0, 0, 1, -12, -9)"><rect class="a" width="380.612" height="5.042" transform="translate(373.16 9) rotate(45)"/></g></g></svg>