<svg xmlns="http://www.w3.org/2000/svg" xmlns:xlink="http://www.w3.org/1999/xlink" width="61.151" height="63.422" viewBox="0 0 61.151 63.422"><defs><style>.a{fill:none;}.b{fill:#e3e3e3;fill-rule:evenodd;}.c{filter:url(#a);}</style><filter id="a" x="0" y="0" width="61.151" height="63.422" filterUnits="userSpaceOnUse"><feOffset dy="3" input="SourceAlpha"/><feGaussianBlur stdDeviation="3" result="b"/><feFlood flood-opacity="0.161"/><feComposite operator="in" in2="b"/><feComposite in="SourceGraphic"/></filter></defs><g transform="translate(9 6)"><rect class="a" width="45" height="45"/><g class="c" transform="matrix(1, 0, 0, 1, -9, -6)"><path class="b" d="M281.292,28.389a5.678,5.678,0,1,0-5.678-5.678A5.694,5.694,0,0,0,281.292,28.389ZM269.652,10.22a16.01,16.01,0,0,1,6.813-3.691L278.737,0h5.678l2.271,6.529A19.824,19.824,0,0,1,293.5,10.22L300.312,8.8l2.839,5.11-4.542,5.11a16.188,16.188,0,0,1,.284,3.691c0,1.136-.284,2.555-.284,3.691l4.542,5.11-2.839,5.11L293.5,35.2a16.01,16.01,0,0,1-6.813,3.691l-2.271,6.529h-5.678l-2.271-6.529a19.824,19.824,0,0,1-6.813-3.691l-6.813,1.419L260,31.511l4.542-5.11a16.184,16.184,0,0,1-.284-3.691c0-1.136.284-2.555.284-3.691L260,13.91l2.839-5.11Z" transform="translate(-251 6)"/></g></g></svg>