<svg xmlns="http://www.w3.org/2000/svg" width="55.531" height="55.598" viewBox="0 0 55.531 55.598">
  <path id="Octicons-mark-github" d="M27.765,0C12.425,0,0,12.755,0,28.5A28.426,28.426,0,0,0,18.985,55.544c1.388.249,1.909-.606,1.909-1.354,0-.677-.035-2.921-.035-5.309-6.976,1.318-8.781-1.746-9.336-3.349-.312-.819-1.666-3.349-2.846-4.026-.972-.534-2.36-1.853-.035-1.888,2.187-.036,3.748,2.066,4.269,2.921,2.5,4.311,6.49,3.1,8.087,2.351a6.055,6.055,0,0,1,1.77-3.812c-6.178-.713-12.633-3.171-12.633-14.073a11.258,11.258,0,0,1,2.846-7.66,10.494,10.494,0,0,1,.278-7.553s2.325-.748,7.636,2.921a25.525,25.525,0,0,1,13.883,0c5.31-3.705,7.636-2.921,7.636-2.921a10.494,10.494,0,0,1,.278,7.553,11.193,11.193,0,0,1,2.846,7.66c0,10.938-6.49,13.36-12.668,14.073,1.007.891,1.874,2.6,1.874,5.273,0,3.812-.035,6.876-.035,7.838,0,.748.521,1.639,1.909,1.354A28.493,28.493,0,0,0,55.531,28.5C55.531,12.755,43.106,0,27.765,0Z" fill="#282a36" fill-rule="evenodd"/>
</svg>
