<svg xmlns="http://www.w3.org/2000/svg" width="54.907" height="55.256" viewBox="0 0 54.907 55.256">
  <g id="layer1" transform="translate(-414.436 -395.745)">
    <g id="g3019" transform="translate(414.436 395.745)">
      <path id="path14" d="M243.836-98.329a4.009,4.009,0,0,1,4.058-3.958h46.792a4.009,4.009,0,0,1,4.058,3.958V-50.99a4.009,4.009,0,0,1-4.058,3.958H247.894a4.009,4.009,0,0,1-4.058-3.958Z" transform="translate(-243.836 102.287)" fill="#282a36"/>
      <path id="path28" d="M263.467-52.509V-77.46h-8.293v24.951ZM259.32-80.866c2.892,0,4.692-1.916,4.692-4.31a4.31,4.31,0,0,0-4.637-4.311c-2.837,0-4.692,1.863-4.692,4.311a4.293,4.293,0,0,0,4.583,4.31h.054Z" transform="translate(-246.823 98.764)" fill="#f8f8f8" fill-rule="evenodd"/>
      <path id="path30" d="M273.136-48.162h8.293V-62.1a5.684,5.684,0,0,1,.273-2.024,4.54,4.54,0,0,1,4.255-3.033c3,0,4.2,2.288,4.2,5.642v13.348h8.293V-62.468c0-7.664-4.091-11.23-9.548-11.23a8.261,8.261,0,0,0-7.529,4.2h.055v-3.619h-8.293c.109,2.341,0,24.951,0,24.951Z" transform="translate(-251.903 94.416)" fill="#f8f8f8" fill-rule="evenodd"/>
    </g>
  </g>
</svg>
