<svg xmlns="http://www.w3.org/2000/svg" width="68.147" height="55.383" viewBox="0 0 68.147 55.383">
  <g id="layer1" transform="translate(-540.179 -569.858)">
    <path id="path3611" d="M561.611,625.241c25.717,0,39.78-21.306,39.78-39.78q0-.908-.039-1.807a28.431,28.431,0,0,0,6.974-7.24,27.877,27.877,0,0,1-8.029,2.2,14.031,14.031,0,0,0,6.148-7.733,28.039,28.039,0,0,1-8.878,3.394,13.994,13.994,0,0,0-23.826,12.75,39.7,39.7,0,0,1-28.82-14.608,13.994,13.994,0,0,0,4.329,18.666,13.88,13.88,0,0,1-6.332-1.749c0,.059,0,.116,0,.178a13.986,13.986,0,0,0,11.217,13.706,13.959,13.959,0,0,1-6.315.24,14,14,0,0,0,13.061,9.711,28.049,28.049,0,0,1-17.365,5.985,28.407,28.407,0,0,1-3.335-.193,39.577,39.577,0,0,0,21.432,6.28" fill="#282a36"/>
  </g>
</svg>
