<svg xmlns="http://www.w3.org/2000/svg" width="55.277" height="66.307" viewBox="0 0 55.277 66.307">
  <g id="idea" transform="translate(-35.966)">
    <g id="Groupe_50" data-name="Groupe 50" transform="translate(35.966)">
      <g id="Groupe_49" data-name="Groupe 49">
        <path id="Tracé_34" data-name="Tracé 34" d="M122.381,93.2a17.078,17.078,0,0,0-11.286,29.872c2.7,2.7,2.454,8.465,2.392,8.526a1.016,1.016,0,0,0,.307.8,1.132,1.132,0,0,0,.736.307h15.641a1.016,1.016,0,0,0,.736-.307,1.166,1.166,0,0,0,.307-.8c0-.061-.307-5.827,2.392-8.526l.184-.184A17.026,17.026,0,0,0,122.381,93.2Zm9.814,28.277c-.061.061-.184.184-.184.245-2.392,2.576-2.822,6.809-2.883,8.833H115.573c-.061-2.024-.491-6.441-3.067-9.078a14.936,14.936,0,1,1,19.69,0Z" transform="translate(-94.692 -78.908)" fill="#fff"/>
        <path id="Tracé_35" data-name="Tracé 35" d="M210.372,121.6a1.043,1.043,0,1,0,0,2.086,11.165,11.165,0,0,1,11.164,11.164,1.043,1.043,0,1,0,2.085,0A13.194,13.194,0,0,0,210.372,121.6Z" transform="translate(-182.744 -102.953)" fill="#fff"/>
        <path id="Tracé_36" data-name="Tracé 36" d="M171.122,358.4H157.505a2.576,2.576,0,1,0,0,5.152h13.556a2.646,2.646,0,0,0,2.638-2.576A2.592,2.592,0,0,0,171.122,358.4Zm0,3.006H157.505a.484.484,0,0,1-.491-.491.451.451,0,0,1,.491-.491h13.556a.484.484,0,0,1,.491.491A.438.438,0,0,1,171.122,361.406Z" transform="translate(-136.686 -303.441)" fill="#fff"/>
        <path id="Tracé_37" data-name="Tracé 37" d="M180.274,398.8h-9.569a2.576,2.576,0,1,0,0,5.152h9.569a2.592,2.592,0,0,0,2.576-2.576A2.553,2.553,0,0,0,180.274,398.8Zm0,3.006h-9.569a.484.484,0,0,1-.491-.491.451.451,0,0,1,.491-.491h9.569a.491.491,0,1,1,0,.981Z" transform="translate(-147.862 -337.646)" fill="#fff"/>
        <path id="Tracé_38" data-name="Tracé 38" d="M210.372,9.2a1.034,1.034,0,0,0,1.043-1.043V1.043a1.043,1.043,0,0,0-2.086,0V8.158A1.075,1.075,0,0,0,210.372,9.2Z" transform="translate(-182.744)" fill="#fff"/>
        <path id="Tracé_39" data-name="Tracé 39" d="M298.684,33.311a.989.989,0,0,0-1.411.245l-3.926,5.888a1.011,1.011,0,0,0,.245,1.472.989.989,0,0,0,.552.184A.979.979,0,0,0,295,40.61l3.926-5.889A.951.951,0,0,0,298.684,33.311Z" transform="translate(-253.698 -28.035)" fill="#fff"/>
        <path id="Tracé_40" data-name="Tracé 40" d="M107.929,38.989a.989.989,0,0,0,.552-.184,1.075,1.075,0,0,0,.307-1.472l-3.8-5.95a1.063,1.063,0,1,0-1.779,1.165l3.8,5.95A1.018,1.018,0,0,0,107.929,38.989Z" transform="translate(-92.753 -26.17)" fill="#fff"/>
        <path id="Tracé_41" data-name="Tracé 41" d="M43.719,106.776l-6.2-3.374a1.08,1.08,0,0,0-1.411.429.979.979,0,0,0,.429,1.411l6.2,3.374a1.444,1.444,0,0,0,.491.123,1.012,1.012,0,0,0,.92-.552A1.08,1.08,0,0,0,43.719,106.776Z" transform="translate(-35.966 -87.455)" fill="#fff"/>
        <path id="Tracé_42" data-name="Tracé 42" d="M350.428,103.832a1.08,1.08,0,0,0-1.411-.429l-6.257,3.374a1.08,1.08,0,0,0-.429,1.411,1.012,1.012,0,0,0,.92.552,1.156,1.156,0,0,0,.491-.123L350,105.243A1.08,1.08,0,0,0,350.428,103.832Z" transform="translate(-295.26 -87.455)" fill="#fff"/>
      </g>
    </g>
  </g>
</svg>
