<svg id="conversation" xmlns="http://www.w3.org/2000/svg" width="63.67" height="63.67" viewBox="0 0 63.67 63.67">
  <g id="Groupe_34" data-name="Groupe 34" transform="translate(0 21.638)">
    <g id="Groupe_33" data-name="Groupe 33">
      <path id="Tracé_26" data-name="Tracé 26" d="M43.027,192.032a1.244,1.244,0,0,0-1.244,1.244v8.581a6.225,6.225,0,0,1-6.218,6.218H22.139a1.244,1.244,0,0,0-1.244,1.243l0,2.472-2.968-2.968a1.244,1.244,0,0,0-1.14-.747H8.7a6.225,6.225,0,0,1-6.218-6.218V182.7A6.225,6.225,0,0,1,8.7,176.487h12.56a1.244,1.244,0,1,0,0-2.487H8.7A8.715,8.715,0,0,0,0,182.7v19.151a8.715,8.715,0,0,0,8.7,8.7h7.444l5.107,5.107a1.244,1.244,0,0,0,2.123-.878l0-4.229H35.566a8.715,8.715,0,0,0,8.7-8.7v-8.581A1.244,1.244,0,0,0,43.027,192.032Z" transform="translate(0 -174)" fill="#fff"/>
    </g>
  </g>
  <g id="Groupe_36" data-name="Groupe 36" transform="translate(24.374)">
    <g id="Groupe_35" data-name="Groupe 35">
      <path id="Tracé_27" data-name="Tracé 27" d="M217.222,0h-3.147a18.075,18.075,0,1,0,0,36.149h3.147a18.109,18.109,0,0,0,4.588-.588l4.649,4.647a1.244,1.244,0,0,0,2.123-.88V32.134a18.248,18.248,0,0,0,4.751-5.857,17.88,17.88,0,0,0,1.964-8.2A18.1,18.1,0,0,0,217.222,0Zm9.368,30.534a1.244,1.244,0,0,0-.5.993v4.8l-3.043-3.042a1.243,1.243,0,0,0-1.244-.309,15.592,15.592,0,0,1-4.585.685h-3.147a15.588,15.588,0,1,1,0-31.175h3.147a15.588,15.588,0,0,1,9.368,28.047Z" transform="translate(-196)" fill="#fff"/>
    </g>
  </g>
  <g id="Groupe_38" data-name="Groupe 38" transform="translate(39.105 8.713)">
    <g id="Groupe_37" data-name="Groupe 37">
      <path id="Tracé_28" data-name="Tracé 28" d="M324.979,74.958a5.277,5.277,0,0,0-4.882-4.881,5.224,5.224,0,0,0-3.962,1.4,5.284,5.284,0,0,0-1.673,3.849,1.244,1.244,0,0,0,2.487,0,2.778,2.778,0,0,1,2.977-2.771,2.778,2.778,0,0,1,.411,5.482,2.353,2.353,0,0,0-1.854,2.307v2.988a1.243,1.243,0,1,0,2.487,0V80.445A5.238,5.238,0,0,0,324.979,74.958Z" transform="translate(-314.462 -70.063)" fill="#fff"/>
    </g>
  </g>
  <g id="Groupe_40" data-name="Groupe 40" transform="translate(43.127 25.658)">
    <g id="Groupe_39" data-name="Groupe 39">
      <path id="Tracé_29" data-name="Tracé 29" d="M348.923,206.694a1.244,1.244,0,1,0,.364.879A1.253,1.253,0,0,0,348.923,206.694Z" transform="translate(-346.8 -206.33)" fill="#fff"/>
    </g>
  </g>
  <g id="Groupe_42" data-name="Groupe 42" transform="translate(6.715 38.55)">
    <g id="Groupe_41" data-name="Groupe 41">
      <path id="Tracé_30" data-name="Tracé 30" d="M81.483,310H55.244a1.244,1.244,0,1,0,0,2.487H81.483a1.244,1.244,0,1,0,0-2.487Z" transform="translate(-54 -310)" fill="#fff"/>
    </g>
  </g>
  <g id="Groupe_44" data-name="Groupe 44" transform="translate(32.954 45.514)">
    <g id="Groupe_43" data-name="Groupe 43">
      <path id="Tracé_31" data-name="Tracé 31" d="M267.123,366.364a1.243,1.243,0,1,0,.364.879A1.252,1.252,0,0,0,267.123,366.364Z" transform="translate(-265 -366)" fill="#fff"/>
    </g>
  </g>
  <g id="Groupe_46" data-name="Groupe 46" transform="translate(6.715 45.514)">
    <g id="Groupe_45" data-name="Groupe 45">
      <path id="Tracé_32" data-name="Tracé 32" d="M76.591,366H55.244a1.244,1.244,0,1,0,0,2.487H76.591a1.244,1.244,0,1,0,0-2.487Z" transform="translate(-54 -366)" fill="#fff"/>
    </g>
  </g>
  <g id="Groupe_48" data-name="Groupe 48" transform="translate(6.715 31.586)">
    <g id="Groupe_47" data-name="Groupe 47">
      <path id="Tracé_33" data-name="Tracé 33" d="M73.4,254H55.244a1.244,1.244,0,0,0,0,2.487H73.4a1.244,1.244,0,1,0,0-2.487Z" transform="translate(-54 -254)" fill="#fff"/>
    </g>
  </g>
</svg>
