<svg id="startup" xmlns="http://www.w3.org/2000/svg" width="55.331" height="55.008" viewBox="0 0 55.331 55.008">
  <g id="Groupe_24" data-name="Groupe 24" transform="translate(0 52.834)">
    <g id="Groupe_23" data-name="Groupe 23">
      <circle id="Ellipse_2" data-name="Ellipse 2" cx="1.087" cy="1.087" r="1.087" fill="#fff"/>
    </g>
  </g>
  <g id="Groupe_26" data-name="Groupe 26" transform="translate(27.77 25.264)">
    <g id="Groupe_25" data-name="Groupe 25">
      <circle id="Ellipse_3" data-name="Ellipse 3" cx="1.085" cy="1.085" r="1.085" fill="#fff"/>
    </g>
  </g>
  <g id="Groupe_28" data-name="Groupe 28" transform="translate(35.182 11.242)">
    <g id="Groupe_27" data-name="Groupe 27">
      <path id="Tracé_21" data-name="Tracé 21" d="M333.432,106.869a4.616,4.616,0,1,0,0,6.531A4.587,4.587,0,0,0,333.432,106.869Zm-1.534,5a2.448,2.448,0,1,1,0-3.462A2.451,2.451,0,0,1,331.9,111.865Z" transform="translate(-325.551 -105.516)" fill="#fff"/>
    </g>
  </g>
  <g id="Groupe_30" data-name="Groupe 30" transform="translate(3.496 40.971)">
    <g id="Groupe_29" data-name="Groupe 29">
      <path id="Tracé_22" data-name="Tracé 22" d="M42.407,383.948a1.085,1.085,0,0,0-1.455.488l-1.292,2.6A3.581,3.581,0,0,1,36.71,389l-1.5.1a.643.643,0,0,1-.685-.685l.1-1.5a3.581,3.581,0,0,1,1.969-2.95l2.6-1.292a1.085,1.085,0,0,0-.967-1.942l-2.6,1.292a5.759,5.759,0,0,0-3.167,4.744l-.1,1.5a2.813,2.813,0,0,0,2.806,3.005c.064,0,.128,0,.192-.007l1.5-.1A5.758,5.758,0,0,0,41.6,388l1.292-2.6A1.085,1.085,0,0,0,42.407,383.948Z" transform="translate(-32.35 -380.616)" fill="#fff"/>
    </g>
  </g>
  <g id="Groupe_32" data-name="Groupe 32" transform="translate(0.002 0)">
    <g id="Groupe_31" data-name="Groupe 31">
      <path id="Tracé_23" data-name="Tracé 23" d="M54.6,2.215A2.512,2.512,0,0,0,52.675,1.5l-1.01.064a32.736,32.736,0,0,0-23.258,12l-2.378,2.927L19.806,16.3h-.032A18.356,18.356,0,0,0,6.709,21.714L.336,28.088a1.085,1.085,0,0,0,.712,1.851l13.492.693-.55.677a1.085,1.085,0,0,0-.111,1.2q.317.583.664,1.147l-3.2,3.8a1.086,1.086,0,0,0-.151,1.163A14.127,14.127,0,0,0,17.974,45.4a1.085,1.085,0,0,0,1.148-.138c.689-.559,1.484-1.222,2.252-1.864.548-.457,1.108-.925,1.632-1.356q.469.282.95.545a1.085,1.085,0,0,0,1.184-.1l.74-.574.7,13.549a1.085,1.085,0,0,0,1.851.712L34.8,49.807a18.355,18.355,0,0,0,5.412-13.065V30.8l2.514-1.951A32.606,32.606,0,0,0,55.318,4.655l.026-.528A2.514,2.514,0,0,0,54.6,2.215ZM3.6,27.9l4.648-4.648a16.2,16.2,0,0,1,11.515-4.776l4.548.134-8.074,9.94ZM19.984,41.735c-.566.472-1.147.957-1.686,1.4a11.919,11.919,0,0,1-4.834-4.829l2.342-2.781a25.154,25.154,0,0,0,2.321,2.694l0,0h0a25.154,25.154,0,0,0,2.987,2.568C20.745,41.1,20.361,41.42,19.984,41.735Zm18.058-4.993a16.2,16.2,0,0,1-4.776,11.531l-4.648,4.648L27.969,40.3l10.073-7.817v4.259ZM53.151,4.549A30.438,30.438,0,0,1,41.4,27.133L24.38,40.338a22.974,22.974,0,0,1-3.93-2.9L26.187,31.7a1.085,1.085,0,0,0-1.534-1.534L18.921,35.9A22.971,22.971,0,0,1,16.139,32.1L30.091,14.926A30.559,30.559,0,0,1,51.8,3.728l1.01-.064a.342.342,0,0,1,.363.358Z" transform="translate(-0.018 -1.492)" fill="#fff"/>
    </g>
  </g>
</svg>
