<svg xmlns="http://www.w3.org/2000/svg" width="121.987" height="91.902" viewBox="0 0 121.987 91.902">
  <g id="Groupe_6" data-name="Groupe 6" transform="translate(-213.411 -920)">
    <g id="layer1" transform="translate(213.411 920)">
      <g id="g3013" transform="translate(0 0)">
        <path id="polygon2989" d="M155.668,100.62l-7.382,82.7-33.184,9.2-33.093-9.187L74.633,100.62Z" transform="translate(-74.633 -100.62)" fill="#406db0"/>
        <path id="polygon2991" d="M282.815,201.567l6.309-70.673H256V209Z" transform="translate(-215.483 -124.131)" fill="#707070"/>
        <path id="polygon2993" d="M150.31,268.217l.909,10.145h22.7V268.217Z" transform="translate(-133.404 -230.776)" fill="#ebebeb"/>
        <path id="polygon2995" d="M167.57,176.3H142.132l.922,10.145H167.57Z" transform="translate(-127.053 -159.397)" fill="#ebebeb"/>
        <path id="polygon2997" d="M178.658,358.018V347.463l-.044.012-11.3-3.051-.722-8.091H156.409l1.421,15.929,20.781,5.769Z" transform="translate(-138.14 -283.675)" fill="#ebebeb"/>
        <path id="polygon3005" d="M268.335,206.983l-1.178,13.157-11.315,3.054v10.554l20.8-5.764.153-1.714,2.384-26.708.247-2.724,1.831-20.533H255.843V186.45h14.295l-.923,10.388H255.843v10.145Z" transform="translate(-215.361 -159.397)" fill="#fff"/>
      </g>
    </g>
    <g id="HTML5Logo" transform="translate(254.352 920)">
      <path id="Tracé_2" data-name="Tracé 2" d="M81.972,183.343,74.6,100.6h81.045l-7.372,82.7-33.218,9.2" transform="translate(-74.6 -100.6)" fill="#406db0"/>
      <path id="Tracé_3" data-name="Tracé 3" d="M256,209.074V131h33.129l-6.322,70.591" transform="translate(-215.477 -124.209)" fill="#707070"/>
      <path id="Tracé_4" data-name="Tracé 4" d="M142,176.3h25.466v10.142H153.125l.938,10.388h13.4v10.12h-22.7m.447,5.093H155.4l.715,8.109,11.348,3.038v10.589l-20.82-5.808" transform="translate(-126.944 -159.389)" fill="#ebebeb"/>
      <path id="Tracé_5" data-name="Tracé 5" d="M281.222,176.3H255.8v10.142h24.483m-.916,10.388H255.8v10.142h12.51l-1.184,13.18L255.8,223.189v10.544l20.775-5.763" transform="translate(-215.322 -159.389)" fill="#fff"/>
    </g>
  </g>
</svg>
