<svg xmlns="http://www.w3.org/2000/svg" xmlns:xlink="http://www.w3.org/1999/xlink" width="34" height="31" viewBox="0 0 34 31"><defs><style>.a{fill:#5a5a5a;}.b{clip-path:url(#a);}.c{fill:#505050;}.d{fill:#ffa0f0;}.e{fill:#9f6496;}</style><clipPath id="a"><rect class="a" width="34" height="31" transform="translate(-0.321 0.118)"/></clipPath></defs><g class="b" transform="translate(0.321 -0.118)"><g transform="translate(0 1.504)"><path class="c" d="M0,0H9.106V20H0Z" transform="translate(11.839 3.507)"/><path class="c" d="M0,0H4.934V2.55H0Z" transform="translate(14.532 23.838)"/><path class="c" d="M0,0H9.106V20H0Z" transform="translate(17.533 3.339) rotate(17.47)"/><path class="c" d="M0,0H7.482V20.187H0Z" transform="translate(6.845 7.442) rotate(-19.9)"/><path class="c" d="M0,0H20.764V4.809H0Z" transform="translate(5.93 2.637)"/><path class="d" d="M54.106,10.471c.075,1.1-4.686-5.859-7.325-7.546a1.741,1.741,0,0,0-1.413-.272,29.615,29.615,0,0,1-11.489.1,1.741,1.741,0,0,0-1.409.295c-2.671,1.775-7.333,8.23-7.143,6.786A12.122,12.122,0,0,1,32.3.282,1.533,1.533,0,0,1,33.4.149,26.894,26.894,0,0,0,45.8.036a1.726,1.726,0,0,1,1.275.192C51.38,2.471,53.785,5.858,54.106,10.471Z" transform="translate(-23.066 0.013)"/><path class="e" d="M33.24,62.473c.167.2.3.351.066.63-1.482,1.735-3.188,2.877-5.4,2.715-.937-.069-.931-.122-.649-1.14.193-.7.391-1.126,1.184-1.006a3.063,3.063,0,0,0,2.254-.855,4.034,4.034,0,0,0-1.89-.854c-1.2-.181-1.832.258-2.244,1.546q-2,6.236-3.983,12.475c-.416,1.306-.823,2.615-1.246,3.917-.389,1.2-4.274,2.252-4.608,2.252s-4.233-1.087-4.613-2.275c-1.7-5.3-3.435-10.571-5.046-15.9-.729-2.4-1.984-2.289-3.429-1.7a9.006,9.006,0,0,0-.919.512,3.345,3.345,0,0,0,2.511.882c.535-.075.7.16.85.666.429,1.416.41,1.5-.905,1.5A6.544,6.544,0,0,1,.127,63.079a.343.343,0,0,1-.051-.46,6.408,6.408,0,0,1,5.708-2.754A3.664,3.664,0,0,1,8.594,62.65q2.621,8.245,5.265,16.474c.384,1.207.4,1.228,1.5,1.534,1.533.427,3.633.3,4.211-1.487q1.849-5.727,3.67-11.464c.5-1.572,1.06-3.125,1.494-4.722.811-2.978,2.971-3.577,5.037-2.966A7.23,7.23,0,0,1,33.24,62.473Z" transform="translate(-0.01 -54.473)"/></g></g></svg>