<svg xmlns="http://www.w3.org/2000/svg" xmlns:xlink="http://www.w3.org/1999/xlink" width="47" height="47" viewBox="0 0 47 47"><defs><style>.a{fill:#505050;stroke:#ffa0f0;stroke-linecap:square;stroke-linejoin:round;fill-rule:evenodd;}.b{filter:url(#a);}</style><filter id="a" x="0" y="0" width="47" height="47" filterUnits="userSpaceOnUse"><feOffset dy="3" input="SourceAlpha"/><feGaussianBlur stdDeviation="3" result="b"/><feFlood flood-opacity="0.161"/><feComposite operator="in" in2="b"/><feComposite in="SourceGraphic"/></filter></defs><g transform="translate(9.5 6.5)"><g class="b" transform="matrix(1, 0, 0, 1, -9.5, -6.5)"><path class="a" d="M273.816,17.5A3.606,3.606,0,0,0,277.5,14a3.689,3.689,0,0,0-7.368,0A3.606,3.606,0,0,0,273.816,17.5ZM266.263,6.3a10.566,10.566,0,0,1,4.421-2.275L272.158,0h3.684l1.474,4.025A13.086,13.086,0,0,1,281.737,6.3l4.421-.875L288,8.575l-2.947,3.15A9.491,9.491,0,0,1,285.237,14c0,.7-.184,1.575-.184,2.275L288,19.425l-1.842,3.15-4.421-.875a10.566,10.566,0,0,1-4.421,2.275L275.842,28h-3.684l-1.474-4.025a13.086,13.086,0,0,1-4.421-2.275l-4.421.875L260,19.425l2.947-3.15A9.491,9.491,0,0,1,262.763,14c0-.7.184-1.575.184-2.275L260,8.575l1.842-3.15Z" transform="translate(-250.5 6.5)"/></g></g></svg>