<svg xmlns="http://www.w3.org/2000/svg" width="32.621" height="32.223"><defs><style>.a{fill:#505050}.b{fill:#936c00}.c{fill:#ffc400}</style></defs><path class="a" transform="translate(14.148 27.897)" d="M0 0H3.973V3.153H0z"/><path class="a" transform="rotate(-16.55 41.819 -20.279)" d="M0 0H7.328V19.209H0z"/><path class="a" transform="rotate(17.45 -20.271 63.323)" d="M0 0H7.328V19.209H0z"/><path class="a" transform="translate(12.646 9.91)" d="M0 0H7.328V20.28H0z"/><path class="b" d="M29.948 12.627a3.937 3.937 0 0 0-1.845-.833c-1.17-.177-1.788.252-2.191 1.509q-1.948 6.086-3.887 12.176c-.406 1.274-.8 2.552-1.216 3.823-.38 1.167-4.172 2.922-4.5 2.922s-4.132-1.787-4.5-2.944c-1.655-5.166-3.353-10.314-4.925-15.512-.705-2.344-1.937-2.236-3.343-1.664a8.8 8.8 0 0 0-.9.5 3.265 3.265 0 0 0 2.451.861c.522-.07.68.156.83.65.419 1.382.4 1.46-.883 1.463a6.383 6.383 0 0 1-4.925-2.694.338.338 0 0 1-.05-.45 6.256 6.256 0 0 1 5.573-2.685 3.575 3.575 0 0 1 2.743 2.718c1.7 5.365 3.43 10.722 5.139 16.079a3.106 3.106 0 0 0 2.121 2.272c1.5.417 2.889-.478 3.453-2.226q1.8-5.59 3.582-11.189c.49-1.535 1.034-3.051 1.458-4.609.791-2.907 2.9-3.491 4.916-2.9a7.057 7.057 0 0 1 3.388 2.4c.163.2.294.342.064.615-1.446 1.693-3.112 2.808-5.268 2.65-.915-.068-.908-.119-.634-1.113.188-.68.382-1.1 1.156-.982a2.977 2.977 0 0 0 2.193-.837z"/><path class="c" d="M9.29 8.461a1.561 1.561 0 0 0 1.381.311 26.031 26.031 0 0 1 11.255 0 1.563 1.563 0 0 0 1.382-.309c2.629-1.914 7.255-8.94 7.05-7.361a13.207 13.207 0 0 1-6.909 10.392 1.362 1.362 0 0 1-1.076.132 23.72 23.72 0 0 0-12.146 0 1.547 1.547 0 0 1-1.247-.221A13.236 13.236 0 0 1 2.179.123C2.113-1.071 6.718 6.588 9.29 8.461z"/></svg>