<svg xmlns="http://www.w3.org/2000/svg" width="32.621" height="32.223" viewBox="0 0 32.621 32.223"><defs><style>.a{fill:#505050;}.b{fill:#969696;}.c{fill:#c9c9c9;}</style></defs><rect class="a" width="3.973" height="3.153" transform="translate(14.148 27.897)"/><rect class="a" width="7.328" height="19.209" transform="translate(7.509 11.072) rotate(-16.55)"/><rect class="a" width="7.328" height="19.209" transform="matrix(0.954, 0.299, -0.299, 0.954, 18.001, 8.974)"/><rect class="a" width="7.328" height="20.28" transform="translate(12.646 9.91)"/><path class="b" d="M30.011,134.543a3.937,3.937,0,0,0-1.845-.833c-1.17-.177-1.788.252-2.191,1.509q-1.948,6.086-3.887,12.176c-.406,1.274-.8,2.552-1.216,3.823-.38,1.167-4.172,2.922-4.5,2.922s-4.132-1.787-4.5-2.944c-1.655-5.166-3.353-10.314-4.925-15.512-.705-2.344-1.937-2.236-3.343-1.664a8.8,8.8,0,0,0-.9.5,3.265,3.265,0,0,0,2.451.861c.522-.07.68.156.83.65.419,1.382.4,1.46-.883,1.463A6.383,6.383,0,0,1,.177,134.8a.338.338,0,0,1-.05-.45A6.256,6.256,0,0,1,5.7,131.665a3.575,3.575,0,0,1,2.743,2.718c1.7,5.365,3.43,10.722,5.139,16.079a3.106,3.106,0,0,0,2.121,2.272c1.5.417,2.889-.478,3.453-2.226q1.8-5.59,3.582-11.189c.49-1.535,1.034-3.051,1.458-4.609.791-2.907,2.9-3.491,4.916-2.9A7.057,7.057,0,0,1,32.5,134.21c.163.2.294.342.064.615-1.446,1.693-3.112,2.808-5.268,2.65-.915-.068-.908-.119-.634-1.113.188-.68.382-1.1,1.156-.982A2.977,2.977,0,0,0,30.011,134.543Z" transform="translate(-0.063 -121.916)"/><path class="c" d="M36.772,8.438a1.561,1.561,0,0,0,1.381.311,26.031,26.031,0,0,1,11.255,0A1.563,1.563,0,0,0,50.79,8.44C53.419,6.526,58.045-.5,57.84,1.079a13.207,13.207,0,0,1-6.909,10.392,1.362,1.362,0,0,1-1.076.132,23.72,23.72,0,0,0-12.146,0,1.547,1.547,0,0,1-1.247-.221A13.236,13.236,0,0,1,29.661.1C29.595-1.094,34.2,6.565,36.772,8.438Z" transform="translate(-27.482 0.023)"/></svg>