<svg id="g3013" xmlns="http://www.w3.org/2000/svg" width="81.035" height="91.9" viewBox="0 0 81.035 91.9">
  <path id="polygon2989" d="M155.668,100.62l-7.382,82.7-33.184,9.2-33.093-9.187L74.633,100.62Z" transform="translate(-74.633 -100.62)" fill="#406db0"/>
  <path id="polygon2991" d="M282.815,201.567l6.309-70.673H256V209Z" transform="translate(-215.483 -124.131)" fill="#5b98f2"/>
  <path id="polygon2993" d="M150.31,268.217l.909,10.145h22.7V268.217Z" transform="translate(-133.404 -230.776)" fill="#ebebeb"/>
  <path id="polygon2995" d="M167.57,176.3H142.132l.922,10.145H167.57Z" transform="translate(-127.053 -159.397)" fill="#ebebeb"/>
  <path id="polygon2997" d="M178.658,358.018V347.463l-.044.012-11.3-3.051-.722-8.091H156.409l1.421,15.929,20.781,5.769Z" transform="translate(-138.14 -283.675)" fill="#ebebeb"/>
  <path id="polygon3005" d="M268.335,206.983l-1.178,13.157-11.315,3.054v10.554l20.8-5.764.153-1.714,2.384-26.708.247-2.724,1.831-20.533H255.843V186.45h14.295l-.923,10.388H255.843v10.145Z" transform="translate(-215.361 -159.397)" fill="#fff"/>
</svg>
