<svg id="JAVASCRIPTLogo" xmlns="http://www.w3.org/2000/svg" width="81.045" height="91.9" viewBox="0 0 81.045 91.9">
  <g id="HTML5Logo">
    <path id="Tracé_2" data-name="Tracé 2" d="M81.972,183.343,74.6,100.6h81.045l-7.372,82.7-33.218,9.2" transform="translate(-74.6 -100.6)" fill="#406db0"/>
    <path id="Tracé_3" data-name="Tracé 3" d="M256,209.074V131h33.129l-6.322,70.591" transform="translate(-215.477 -124.209)" fill="#5b98f2"/>
  </g>
  <path id="Tracé_9" data-name="Tracé 9" d="M215.881,320.82a19.888,19.888,0,0,0,1.385,1.988,10.157,10.157,0,0,0,8.5,4.1c4.153,0,6.806-2.076,6.806-4.944,0-3.437-2.726-4.655-7.3-6.654l-2.506-1.075c-7.233-3.082-12.038-6.942-12.038-15.1,0-7.518,5.728-13.241,14.68-13.241,6.373,0,10.955,2.218,14.256,8.026l-7.8,5.012c-1.719-3.082-3.573-4.3-6.451-4.3-2.936,0-4.8,1.862-4.8,4.3,0,3.007,1.862,4.224,6.163,6.087l2.506,1.073c8.517,3.652,13.325,7.375,13.325,15.746,0,9.025-7.089,13.969-16.61,13.969a23.677,23.677,0,0,1-8.841-1.6,17.791,17.791,0,0,1-9.425-8.645Z" transform="translate(-176.606 -264.837)" fill="#fff"/>
  <path id="Tracé_8" data-name="Tracé 8" d="M174.135,322.2c1.593,2.826,3.042,5.216,6.526,5.216,3.332,0,5.434-1.3,5.434-6.372V286.566h10.141v34.619c0,10.5-6.156,15.28-15.143,15.28-8.119,0-12.822-4.2-15.213-9.263Z" transform="translate(-155.403 -265.513)" fill="#ebebeb"/>
</svg>
