<svg id="Groupe_2" data-name="Groupe 2" xmlns="http://www.w3.org/2000/svg" width="81.045" height="91.902" viewBox="0 0 81.045 91.902">
  <g id="HTML5Logo" transform="translate(0)">
    <path id="Tracé_2" data-name="Tracé 2" d="M81.972,183.343,74.6,100.6h81.045l-7.372,82.7-33.218,9.2" transform="translate(-74.6 -100.6)" fill="#563d7c"/>
    <path id="Tracé_3" data-name="Tracé 3" d="M256,209.074V131h33.129l-6.322,70.591" transform="translate(-215.477 -124.209)" fill="#9781b7"/>
  </g>
  <path id="Tracé_15" data-name="Tracé 15" d="M166.3,133h22.563q6.242,0,10.014,2.861c2.51,1.912,3.771,4.786,3.771,8.648a10.345,10.345,0,0,1-1.717,6.008,11.057,11.057,0,0,1-4.916,3.875v.13a10.179,10.179,0,0,1,6.5,4.057,13.476,13.476,0,0,1,2.211,7.907,13.232,13.232,0,0,1-.975,5.1,10.3,10.3,0,0,1-3.056,4.1,15.578,15.578,0,0,1-5.332,2.731,26.148,26.148,0,0,1-7.738,1.014H166.3Zm8.128,19.442h13.265a7.207,7.207,0,0,0,4.877-1.665,5.956,5.956,0,0,0,1.951-4.786c0-2.341-.585-3.992-1.756-4.942a7.881,7.881,0,0,0-5.072-1.431H174.428Zm0,20.352H188.8a8.021,8.021,0,0,0,5.748-1.925,7.087,7.087,0,0,0,2.055-5.436,6.766,6.766,0,0,0-2.055-5.306,8.215,8.215,0,0,0-5.748-1.847h-14.37Z" transform="translate(-145.243 -110.29)" fill="#fff"/>
</svg>
