<svg xmlns="http://www.w3.org/2000/svg" width="99" height="91.902" viewBox="0 0 99 91.902">
  <g id="Groupe_22" data-name="Groupe 22" transform="translate(-419 -456)">
    <g id="Groupe_8" data-name="Groupe 8" transform="translate(436.955 456)">
      <g id="HTML5Logo" transform="translate(0)">
        <path id="Tracé_2" data-name="Tracé 2" d="M81.972,183.343,74.6,100.6h81.045l-7.372,82.7-33.218,9.2" transform="translate(-74.6 -100.6)" fill="#5dc9e1"/>
        <path id="Tracé_3" data-name="Tracé 3" d="M256,209.074V131h33.129l-6.322,70.591" transform="translate(-215.477 -124.209)" fill="#86e2f7"/>
      </g>
    </g>
    <g id="GOLogo" transform="translate(411.3 407.475)">
      <g id="Groupe_11" data-name="Groupe 11" transform="translate(12.5 86.076)">
        <g id="Groupe_10" data-name="Groupe 10" transform="translate(0 0)">
          <g id="Groupe_9" data-name="Groupe 9">
            <path id="Tracé_16" data-name="Tracé 16" d="M39.927,98.576c-.127,0-.159-.064-.1-.159l.668-.858a.455.455,0,0,1,.35-.159H52.2c.127,0,.159.1.1.191l-.54.827a.484.484,0,0,1-.318.191Z" transform="translate(-39.8 -97.4)" fill="#86e2f7"/>
          </g>
        </g>
      </g>
      <g id="Groupe_14" data-name="Groupe 14" transform="translate(7.7 89)">
        <g id="Groupe_13" data-name="Groupe 13">
          <g id="Groupe_12" data-name="Groupe 12">
            <path id="Tracé_17" data-name="Tracé 17" d="M24.827,107.776c-.127,0-.159-.064-.1-.159l.668-.858a.455.455,0,0,1,.35-.159h14.5a.146.146,0,0,1,.159.191l-.254.763a.278.278,0,0,1-.286.191Z" transform="translate(-24.7 -106.6)" fill="#86e2f7"/>
          </g>
        </g>
      </g>
      <g id="Groupe_17" data-name="Groupe 17" transform="translate(15.393 91.925)">
        <g id="Groupe_16" data-name="Groupe 16" transform="translate(0 0)">
          <g id="Groupe_15" data-name="Groupe 15">
            <path id="Tracé_18" data-name="Tracé 18" d="M49.027,116.976c-.127,0-.159-.1-.1-.191l.445-.795a.422.422,0,0,1,.318-.191h6.358c.127,0,.191.1.191.223l-.064.763a.239.239,0,0,1-.223.223Z" transform="translate(-48.9 -115.8)" fill="#86e2f7"/>
          </g>
        </g>
      </g>
      <g id="Groupe_21" data-name="Groupe 21" transform="translate(42.03 77.866)">
        <g id="CXHf1q_7_">
          <g id="Groupe_20" data-name="Groupe 20">
            <g id="Groupe_18" data-name="Groupe 18">
              <path id="Tracé_19" data-name="Tracé 19" d="M102.7,84.68c-2,.509-3.37.89-5.341,1.4-.477.127-.509.159-.922-.318a4.255,4.255,0,0,0-1.494-1.208,5.527,5.527,0,0,0-5.754.477,6.761,6.761,0,0,0-3.243,6.04,4.984,4.984,0,0,0,4.292,4.991,5.867,5.867,0,0,0,5.4-2.1c.286-.35.54-.731.858-1.176H90.369c-.668,0-.827-.413-.6-.954.413-.985,1.176-2.639,1.621-3.465a.858.858,0,0,1,.795-.509h11.572c-.064.858-.064,1.717-.191,2.575a13.558,13.558,0,0,1-2.607,6.231,13.243,13.243,0,0,1-9.06,5.4,11.261,11.261,0,0,1-8.552-2.1,9.985,9.985,0,0,1-4.037-7.057,12.477,12.477,0,0,1,2.7-9.315,14.107,14.107,0,0,1,8.9-5.5,10.955,10.955,0,0,1,8.424,1.558,9.965,9.965,0,0,1,3.688,4.482C103.212,84.425,103.085,84.584,102.7,84.68Z" transform="translate(-79.215 -77.866)" fill="#fff"/>
            </g>
            <g id="Groupe_19" data-name="Groupe 19" transform="translate(22.66 0.294)">
              <path id="Tracé_20" data-name="Tracé 20" d="M161.847,102.891a11.926,11.926,0,0,1-7.757-2.8,9.97,9.97,0,0,1-3.433-6.135,12.136,12.136,0,0,1,2.575-9.6,13.327,13.327,0,0,1,8.9-5.309,11.792,11.792,0,0,1,9.06,1.621,9.9,9.9,0,0,1,4.482,7.089,12.271,12.271,0,0,1-3.656,10.777,14.567,14.567,0,0,1-7.63,4.069C163.531,102.764,162.673,102.8,161.847,102.891Zm7.566-12.843a9.139,9.139,0,0,0-.1-1.049,5.237,5.237,0,0,0-6.485-4.228,6.945,6.945,0,0,0-5.563,5.531,5.235,5.235,0,0,0,2.925,6.008,5.828,5.828,0,0,0,5.182-.191A6.957,6.957,0,0,0,169.413,90.048Z" transform="translate(-150.496 -78.792)" fill="#fff"/>
            </g>
          </g>
        </g>
      </g>
    </g>
  </g>
</svg>
