<svg id="HTML5Logo" xmlns="http://www.w3.org/2000/svg" width="81.045" height="91.902" viewBox="0 0 81.045 91.902">
  <path id="Tracé_2" data-name="Tracé 2" d="M81.972,183.343,74.6,100.6h81.045l-7.372,82.7-33.218,9.2" transform="translate(-74.6 -100.6)" fill="#e44d26"/>
  <path id="Tracé_3" data-name="Tracé 3" d="M256,209.074V131h33.129l-6.322,70.591" transform="translate(-215.477 -124.209)" fill="#f16529"/>
  <path id="Tracé_4" data-name="Tracé 4" d="M142,176.3h25.466v10.142H153.125l.938,10.388h13.4v10.12h-22.7m.447,5.093H155.4l.715,8.109,11.348,3.038v10.589l-20.82-5.808" transform="translate(-126.944 -159.389)" fill="#ebebeb"/>
  <path id="Tracé_5" data-name="Tracé 5" d="M281.222,176.3H255.8v10.142h24.483m-.916,10.388H255.8v10.142h12.51l-1.184,13.18L255.8,223.189v10.544l20.775-5.763" transform="translate(-215.322 -159.389)" fill="#fff"/>
</svg>
