<svg id="Groupe_1" data-name="Groupe 1" xmlns="http://www.w3.org/2000/svg" width="81.046" height="91.902" viewBox="0 0 81.046 91.902">
  <g id="HTML5Logo" transform="translate(0)">
    <path id="Tracé_2" data-name="Tracé 2" d="M81.972,183.343,74.6,100.6h81.045l-7.372,82.7-33.218,9.2" transform="translate(-74.6 -100.6)" fill="#80bd01"/>
    <path id="Tracé_3" data-name="Tracé 3" d="M256,209.074V131h33.129l-6.322,70.591" transform="translate(-215.477 -124.209)" fill="#97de01"/>
  </g>
  <path id="SVGLogo" d="M65.037,92.916a4.5,4.5,0,0,1-2.257-.607l-7.167-4.333c-1.069-.607-.554-.81-.2-.972a13.423,13.423,0,0,0,3.247-1.5.581.581,0,0,1,.515.04l5.5,3.321a.667.667,0,0,0,.673,0L86.776,76.232a.718.718,0,0,0,.317-.607V50.4a.718.718,0,0,0-.317-.607L65.393,37.154a.667.667,0,0,0-.673,0L43.337,49.788a.755.755,0,0,0-.356.607V75.665a.574.574,0,0,0,.356.567L49.2,79.715c3.168,1.62,5.148-.283,5.148-2.227V52.542a.633.633,0,0,1,.634-.648h2.732a.633.633,0,0,1,.634.648V77.487c0,4.333-2.3,6.844-6.336,6.844-1.228,0-2.217,0-4.95-1.377l-5.7-3.28A4.647,4.647,0,0,1,39.1,75.665V50.4a4.7,4.7,0,0,1,2.257-4.009L62.78,33.752a4.7,4.7,0,0,1,4.514,0L88.716,46.387A4.647,4.647,0,0,1,90.973,50.4V75.665a4.7,4.7,0,0,1-2.257,4.009L67.294,92.309A4.5,4.5,0,0,1,65.037,92.916ZM82.3,68.011c0-4.738-3.128-5.993-9.7-6.884-6.652-.891-7.326-1.377-7.326-2.956,0-1.3.554-3.078,5.5-3.078,4.4,0,6.019.972,6.692,4.009a.6.6,0,0,0,.594.486h2.772a.63.63,0,0,0,.436-.2.564.564,0,0,0,.158-.486c-.436-5.224-3.841-7.654-10.691-7.654-6.1,0-9.741,2.632-9.741,7.046,0,4.778,3.6,6.115,9.464,6.722,7.009.688,7.563,1.741,7.563,3.159,0,2.43-1.9,3.483-6.415,3.483-5.663,0-6.93-1.458-7.326-4.333a.61.61,0,0,0-.634-.526H60.879a.633.633,0,0,0-.634.648c0,3.685,1.98,8.1,11.325,8.1C78.421,75.5,82.3,72.79,82.3,68.011Z" transform="translate(-24.556 -17.123)" fill="#fff"/>
</svg>
