<svg id="Groupe_3" data-name="Groupe 3" xmlns="http://www.w3.org/2000/svg" width="81.045" height="91.902" viewBox="0 0 81.045 91.902">
  <g id="HTML5Logo" transform="translate(0)">
    <path id="Tracé_2" data-name="Tracé 2" d="M81.972,183.343,74.6,100.6h81.045l-7.372,82.7-33.218,9.2" transform="translate(-74.6 -100.6)" fill="#61dafb"/>
    <path id="Tracé_3" data-name="Tracé 3" d="M256,209.074V131h33.129l-6.322,70.591" transform="translate(-215.477 -124.209)" fill="#a7ecff"/>
  </g>
  <g id="REACTLogo" transform="translate(12.647 21.309)">
    <path id="Tracé_10" data-name="Tracé 10" d="M231.466,102.837c0-3.694-4.626-7.2-11.719-9.366,1.637-7.229.909-12.981-2.3-14.822a4.984,4.984,0,0,0-2.546-.637v2.535a2.632,2.632,0,0,1,1.3.3c1.546.887,2.217,4.263,1.694,8.6-.125,1.068-.33,2.194-.58,3.342a55.085,55.085,0,0,0-7.218-1.239,55.446,55.446,0,0,0-4.729-5.683c3.706-3.444,7.184-5.331,9.548-5.331V78h0c-3.126,0-7.218,2.228-11.355,6.093-4.138-3.842-8.23-6.047-11.355-6.047V80.58c2.353,0,5.843,1.876,9.548,5.3a53.688,53.688,0,0,0-4.695,5.672,53.079,53.079,0,0,0-7.229,1.25c-.261-1.137-.455-2.239-.591-3.3-.534-4.342.125-7.718,1.66-8.616a2.53,2.53,0,0,1,1.307-.3V78.057a9.283,9.283,0,0,0-2.569.637c-3.194,1.841-3.91,7.582-2.262,14.788-7.07,2.182-11.674,5.672-11.674,9.355s4.626,7.2,11.719,9.366c-1.637,7.229-.909,12.981,2.3,14.822a5,5,0,0,0,2.558.637c3.126,0,7.218-2.228,11.355-6.093,4.138,3.842,8.23,6.047,11.356,6.047a5.068,5.068,0,0,0,2.569-.637c3.194-1.841,3.91-7.582,2.262-14.788C226.862,110.02,231.466,106.519,231.466,102.837Zm-14.8-7.582c-.421,1.466-.943,2.978-1.535,4.49-.466-.909-.955-1.819-1.489-2.728s-1.08-1.8-1.637-2.66C213.62,94.6,215.177,94.891,216.666,95.255Zm-5.206,12.106c-.887,1.535-1.8,2.989-2.739,4.342-1.694.148-3.41.227-5.138.227s-3.433-.08-5.115-.216q-1.415-2.029-2.751-4.319-1.3-2.234-2.364-4.524c.7-1.523,1.5-3.046,2.353-4.535.887-1.535,1.8-2.989,2.739-4.342,1.694-.148,3.41-.227,5.138-.227s3.433.08,5.115.216q1.415,2.029,2.751,4.319,1.3,2.234,2.364,4.524C213.1,104.348,212.313,105.872,211.46,107.361Zm3.671-1.478c.614,1.523,1.137,3.046,1.569,4.524-1.489.364-3.058.671-4.683.909.557-.875,1.114-1.773,1.637-2.694S214.666,106.792,215.132,105.883Zm-11.526,12.128a46.857,46.857,0,0,1-3.16-3.637c1.023.045,2.069.08,3.126.08s2.126-.023,3.16-.08A44.367,44.367,0,0,1,203.606,118.011Zm-8.457-6.7c-1.614-.239-3.171-.534-4.66-.9.421-1.466.943-2.978,1.535-4.49.466.909.955,1.819,1.489,2.728S194.592,110.452,195.149,111.316Zm8.4-23.654a46.863,46.863,0,0,1,3.16,3.637c-1.023-.045-2.069-.08-3.126-.08s-2.126.023-3.16.08A44.375,44.375,0,0,1,203.549,87.662Zm-8.411,6.7c-.557.875-1.114,1.773-1.637,2.694s-1.012,1.819-1.478,2.728c-.614-1.523-1.137-3.046-1.569-4.524C191.943,94.9,193.512,94.6,195.137,94.357ZM184.85,108.588c-4.024-1.716-6.627-3.967-6.627-5.752s2.6-4.047,6.627-5.752c.978-.421,2.046-.8,3.149-1.148a54.6,54.6,0,0,0,2.558,6.922,53.828,53.828,0,0,0-2.523,6.888C186.908,109.4,185.839,109.009,184.85,108.588Zm6.115,16.243c-1.546-.887-2.217-4.263-1.694-8.6.125-1.068.33-2.194.58-3.342a55.087,55.087,0,0,0,7.218,1.239,55.452,55.452,0,0,0,4.729,5.683c-3.706,3.444-7.184,5.331-9.548,5.331A2.713,2.713,0,0,1,190.966,124.831Zm26.962-8.662c.534,4.342-.125,7.718-1.66,8.616a2.53,2.53,0,0,1-1.307.3c-2.353,0-5.843-1.876-9.548-5.3a53.688,53.688,0,0,0,4.695-5.672,53.082,53.082,0,0,0,7.229-1.25A31.822,31.822,0,0,1,217.928,116.17Zm4.376-7.582c-.978.421-2.046.8-3.149,1.148a54.594,54.594,0,0,0-2.558-6.922,53.829,53.829,0,0,0,2.523-6.888c1.125.352,2.194.739,3.194,1.159,4.024,1.716,6.627,3.967,6.627,5.752S226.328,106.883,222.3,108.588Z" transform="translate(-175.7 -78)" fill="#fff"/>
    <path id="Tracé_11" data-name="Tracé 11" d="M320.8,78.4Z" transform="translate(-304.307 -78.355)" fill="#fff"/>
    <circle id="Ellipse_1" data-name="Ellipse 1" cx="5.195" cy="5.195" r="5.195" transform="translate(22.677 19.642)" fill="#fff"/>
    <path id="Tracé_12" data-name="Tracé 12" d="M520.5,78.1Z" transform="translate(-481.307 -78.089)" fill="#fff"/>
  </g>
</svg>
