<svg id="Groupe_7" data-name="Groupe 7" xmlns="http://www.w3.org/2000/svg" width="81.045" height="91.902" viewBox="0 0 81.045 91.902">
  <g id="HTML5Logo" transform="translate(0)">
    <path id="Tracé_2" data-name="Tracé 2" d="M81.972,183.343,74.6,100.6h81.045l-7.372,82.7-33.218,9.2" transform="translate(-74.6 -100.6)" fill="#fc3424"/>
    <path id="Tracé_3" data-name="Tracé 3" d="M256,209.074V131h33.129l-6.322,70.591" transform="translate(-215.477 -124.209)" fill="#f88635"/>
  </g>
  <path id="SWIFTLogo" d="M29.885,33.047c-4.667,2.7-11.084,2.973-17.54.206A27.431,27.431,0,0,1,0,22.688a20.8,20.8,0,0,0,4.56,2.78c6.667,3.125,13.333,2.911,18.024.008l-.007-.008C15.9,20.352,10.232,13.679,6.006,8.23a19.035,19.035,0,0,1-2.225-3A128.354,128.354,0,0,0,19.907,17.461,118.83,118.83,0,0,1,8.563,3.225,112.8,112.8,0,0,0,27.248,18.573c.3.168.528.308.713.433a14.633,14.633,0,0,0,.51-1.545C30.028,11.789,28.249,5.338,24.356,0,33.364,5.45,38.7,15.681,36.478,24.245q-.087.347-.189.683.039.047.078.1c4.448,5.561,3.225,11.455,2.669,10.343-2.413-4.722-6.88-3.278-9.151-2.32Z" transform="translate(21.045 24)" fill="#fff"/>
</svg>
