<svg xmlns="http://www.w3.org/2000/svg" width="110.23" height="124.996" viewBox="0 0 110.23 124.996">
  <g id="Groupe_22" data-name="Groupe 22" transform="translate(-24.42)">
    <g id="Groupe_8" data-name="Groupe 8" transform="translate(24.42 0)">
      <g id="HTML5Logo" transform="translate(0)">
        <path id="Tracé_2" data-name="Tracé 2" d="M84.626,213.139,74.6,100.6H184.83L174.8,213.078,129.624,225.6" transform="translate(-74.6 -100.6)" fill="#b0406d"/>
        <path id="Tracé_3" data-name="Tracé 3" d="M256,237.189V131h45.058l-8.6,96.011" transform="translate(-200.885 -121.764)" fill="#696969"/>
      </g>
    </g>
    <g id="GOLogo" transform="translate(0 39.906)">
      <g id="Groupe_21" data-name="Groupe 21" transform="translate(46.693)">
        <g id="CXHf1q_7_">
          <g id="Groupe_20" data-name="Groupe 20">
            <g id="Groupe_18" data-name="Groupe 18">
              <path id="Tracé_19" data-name="Tracé 19" d="M111.161,87.133c-2.724.692-4.583,1.211-7.264,1.9-.649.173-.692.216-1.254-.432a5.788,5.788,0,0,0-2.032-1.643,7.518,7.518,0,0,0-7.826.649,9.2,9.2,0,0,0-4.41,8.215,6.778,6.778,0,0,0,5.837,6.788,7.98,7.98,0,0,0,7.35-2.854c.389-.476.735-.994,1.167-1.6H94.385c-.908,0-1.124-.562-.822-1.3.562-1.34,1.6-3.589,2.205-4.713a1.167,1.167,0,0,1,1.081-.692h15.739c-.086,1.167-.086,2.335-.259,3.5a18.44,18.44,0,0,1-3.546,8.475,18.012,18.012,0,0,1-12.323,7.35,15.316,15.316,0,0,1-11.631-2.854,13.581,13.581,0,0,1-5.491-9.6,16.97,16.97,0,0,1,3.675-12.669,19.187,19.187,0,0,1,12.107-7.48A14.9,14.9,0,0,1,106.578,80.3a13.553,13.553,0,0,1,5.016,6.1C111.853,86.787,111.68,87,111.161,87.133Z" transform="translate(-79.215 -77.866)" fill="#fff"/>
            </g>
            <g id="Groupe_19" data-name="Groupe 19" transform="translate(30.821 0.4)">
              <path id="Tracé_20" data-name="Tracé 20" d="M165.934,111.57a16.22,16.22,0,0,1-10.55-3.8,13.561,13.561,0,0,1-4.67-8.345,16.506,16.506,0,0,1,3.5-13.058,18.126,18.126,0,0,1,12.107-7.221c4.41-.778,8.561-.346,12.323,2.205a13.459,13.459,0,0,1,6.1,9.642,16.69,16.69,0,0,1-4.972,14.658,19.813,19.813,0,0,1-10.377,5.534C168.225,111.4,167.058,111.44,165.934,111.57ZM176.224,94.1a12.431,12.431,0,0,0-.13-1.427,7.123,7.123,0,0,0-8.82-5.751,9.445,9.445,0,0,0-7.567,7.523,7.121,7.121,0,0,0,3.978,8.172,7.927,7.927,0,0,0,7.048-.259A9.463,9.463,0,0,0,176.224,94.1Z" transform="translate(-150.496 -78.792)" fill="#fff"/>
            </g>
          </g>
        </g>
      </g>
    </g>
  </g>
</svg>
