<svg id="Groupe_7" data-name="Groupe 7" xmlns="http://www.w3.org/2000/svg" width="110.23" height="124.996" viewBox="0 0 110.23 124.996">
  <g id="HTML5Logo" transform="translate(0)">
    <path id="Tracé_2" data-name="Tracé 2" d="M84.626,213.139,74.6,100.6H184.83L174.8,213.078,129.624,225.6" transform="translate(-74.6 -100.6)" fill="#b0406d"/>
    <path id="Tracé_3" data-name="Tracé 3" d="M256,237.189V131h45.058l-8.6,96.011" transform="translate(-200.885 -121.764)" fill="#707070"/>
  </g>
  <path id="SWIFTLogo" d="M40.647,44.947c-6.348,3.667-15.075,4.044-23.856.28A37.309,37.309,0,0,1,0,30.858a28.291,28.291,0,0,0,6.2,3.781c9.068,4.25,18.134,3.959,24.514.011l-.01-.011C21.631,27.681,13.916,18.6,8.168,11.194A25.889,25.889,0,0,1,5.143,7.109,174.574,174.574,0,0,0,27.076,23.749,161.621,161.621,0,0,1,11.647,4.386,153.424,153.424,0,0,0,37.06,25.261c.405.228.718.419.97.589a19.9,19.9,0,0,0,.694-2.1c2.118-7.714-.3-16.488-5.6-23.749C45.379,7.412,52.64,21.328,49.614,32.976q-.118.471-.257.929.053.063.106.131c6.05,7.564,4.386,15.58,3.63,14.068-3.282-6.422-9.357-4.458-12.446-3.155Z" transform="translate(28.624 32.642)" fill="#fff"/>
</svg>
